<?xml version="1.0" encoding="utf-8"?>
<!-- Generator: Adobe Illustrator 25.2.0, SVG Export Plug-In . SVG Version: 6.00 Build 0)  -->
<svg version="1.1" id="Layer_1" xmlns="http://www.w3.org/2000/svg" xmlns:xlink="http://www.w3.org/1999/xlink" x="0px" y="0px"
	 viewBox="0 0 1590 1583" style="enable-background:new 0 0 1590 1583;" xml:space="preserve">
<style type="text/css">
	.st0{clip-path:url(#SVGID_2_);}
	.st1{fill:#39B54A;}
	.st2{fill:#F4BF87;}
	.st3{fill:#29EEFF;}
	.st4{fill:#0071BC;}
	.st5{fill:#FFFFFF;}
	.st6{fill:#ED1E79;}
	.st7{fill:#C6976B;}
	.st8{fill:#534741;}
	.st9{clip-path:url(#SVGID_2_);fill:#B3B3B3;}
	.st10{fill:#333333;}
	.st11{fill:#4D4D4D;}
	.st12{fill:#808080;}
	.st13{fill:#CCCCCC;}
	.st14{fill:#B3B3B3;}
	.st15{fill:#999999;}
	.st16{fill:#F2F2F2;}
	.st17{fill:#C1272D;}
	.st18{clip-path:url(#SVGID_2_);fill:#009245;}
	.st19{fill:#006837;}
	.st20{fill:#FCEE21;}
	.st21{fill:#009245;}
	.st22{fill:#FFFF00;}
	.st23{fill:#8CC63F;}
	.st24{fill:#FF00FF;}
	.st25{fill:#F7931E;}
</style>
<g>
	<defs>
		<rect id="SVGID_1_" y="2" width="1593" height="1581"/>
	</defs>
	<clipPath id="SVGID_2_">
		<use xlink:href="#SVGID_1_"  style="overflow:visible;"/>
	</clipPath>
	<g id="background" class="st0">
		<rect id="grass" x="783" y="422" class="st1" width="833" height="1199"/>
		<rect x="721" y="719" class="st2" width="76" height="100"/>
		<g id="sky">
			<rect x="-10" y="-17" class="st3" width="1604" height="450"/>
		</g>
		<rect x="721" y="1477" class="st1" width="109" height="226"/>
		<polygon class="st2" points="907,795 798,795 798,705 -49,705 -49,1617 798,1617 798,1024 907,1024 		"/>
		<polygon class="st4" points="939,433 798,433 413,433 -5,433 -5,769 -18,769 -18,842 -48,842 -48,936 -12,936 -12,1009 362,1009 
			362,936 432,936 432,863 508,863 508,795 798,795 798,577 866,577 866,504 939,504 		"/>
	</g>
	<g id="lg_clouds" class="st0">
		<polygon class="st5" points="756,162 756,126 646,126 646,162 611,162 611,215 792,215 792,162 		"/>
		<polygon class="st5" points="168,73 168,37 58,37 58,73 23,73 23,126 204,126 204,73 		"/>
		<polygon class="st5" points="1531,72 1531,36 1421,36 1421,72 1386,72 1386,125 1567,125 1567,72 		"/>
	</g>
	<g id="sandcastle" class="st0">
		<rect x="686" y="1062" transform="matrix(-1 -1.224647e-16 1.224647e-16 -1 1390 2142)" class="st6" width="18" height="18"/>
		<rect x="668" y="1082" transform="matrix(-1 -1.224647e-16 1.224647e-16 -1 1354 2182)" class="st6" width="18" height="18"/>
		<polygon class="st7" points="649,1045 649,1027 649,1026 649,1009 631,1009 631,1026 613,1026 613,1009 595,1009 595,1026 
			595,1027 595,1045 579,1045 579,1080 666,1080 666,1045 		"/>
		<rect x="613" y="1046" transform="matrix(-1 -1.224647e-16 1.224647e-16 -1 1244 2110)" class="st8" width="18" height="18"/>
	</g>
	<g id="sand" class="st0">
		<g>
			<rect x="252" y="1262" transform="matrix(-1 -1.224647e-16 1.224647e-16 -1 522 2542)" class="st7" width="18" height="18"/>
			<rect x="271" y="1281" transform="matrix(-1 -1.224647e-16 1.224647e-16 -1 560 2580)" class="st7" width="18" height="18"/>
			<rect x="234" y="1281" transform="matrix(-1 -1.224647e-16 1.224647e-16 -1 486 2580)" class="st7" width="18" height="18"/>
		</g>
		<g>
			<rect x="103" y="1263" transform="matrix(-1 -1.224647e-16 1.224647e-16 -1 224 2544)" class="st7" width="18" height="18"/>
			<rect x="122" y="1282" transform="matrix(-1 -1.224647e-16 1.224647e-16 -1 262 2582)" class="st7" width="18" height="18"/>
			<rect x="85" y="1282" transform="matrix(-1 -1.224647e-16 1.224647e-16 -1 188 2582)" class="st7" width="18" height="18"/>
		</g>
		<rect x="178" y="1263" transform="matrix(-1 -1.224647e-16 1.224647e-16 -1 374 2544)" class="st7" width="18" height="18"/>
		<rect x="197" y="1282" transform="matrix(-1 -1.224647e-16 1.224647e-16 -1 412 2582)" class="st7" width="18" height="18"/>
		<rect x="312" y="1281" transform="matrix(-1 -1.224647e-16 1.224647e-16 -1 642 2580)" class="st7" width="18" height="18"/>
		<rect x="513" y="1151" transform="matrix(-1 -1.224647e-16 1.224647e-16 -1 1044 2320)" class="st7" width="18" height="18"/>
		<rect x="160" y="1282" transform="matrix(-1 -1.224647e-16 1.224647e-16 -1 338 2582)" class="st7" width="18" height="18"/>
		<g>
			<rect x="380" y="1132" transform="matrix(-1 -1.224647e-16 1.224647e-16 -1 778 2282)" class="st7" width="18" height="18"/>
			<rect x="399" y="1151" transform="matrix(-1 -1.224647e-16 1.224647e-16 -1 816 2320)" class="st7" width="18" height="18"/>
			<rect x="362" y="1151" transform="matrix(-1 -1.224647e-16 1.224647e-16 -1 742 2320)" class="st7" width="18" height="18"/>
		</g>
		<g>
			<rect x="455" y="1132" transform="matrix(-1 -1.224647e-16 1.224647e-16 -1 928 2282)" class="st7" width="18" height="18"/>
			<rect x="474" y="1151" transform="matrix(-1 -1.224647e-16 1.224647e-16 -1 966 2320)" class="st7" width="18" height="18"/>
			<rect x="437" y="1151" transform="matrix(-1 -1.224647e-16 1.224647e-16 -1 892 2320)" class="st7" width="18" height="18"/>
		</g>
	</g>
	<g id="shore_waves" class="st0">
		<g>
			<g>
				<rect x="676" y="731" class="st5" width="18" height="18"/>
				<rect x="657" y="712" class="st5" width="18" height="18"/>
				<rect x="694" y="712" class="st5" width="18" height="18"/>
			</g>
			<g>
				<rect x="601" y="731" class="st5" width="18" height="18"/>
				<rect x="582" y="712" class="st5" width="18" height="18"/>
				<rect x="619" y="712" class="st5" width="18" height="18"/>
			</g>
		</g>
		<g>
			<g>
				<rect x="676" y="796" class="st5" width="18" height="18"/>
				<rect x="657" y="777" class="st5" width="18" height="18"/>
				<rect x="694" y="777" class="st5" width="18" height="18"/>
			</g>
			<g>
				<rect x="753" y="796" class="st5" width="18" height="18"/>
				<rect x="734" y="777" class="st5" width="18" height="18"/>
				<rect x="771" y="777" class="st5" width="18" height="18"/>
			</g>
			<g>
				<rect x="601" y="796" class="st5" width="18" height="18"/>
				<rect x="582" y="777" class="st5" width="18" height="18"/>
				<rect x="619" y="777" class="st5" width="18" height="18"/>
			</g>
			<g>
				<rect x="527" y="796" class="st5" width="18" height="18"/>
				<rect x="508" y="777" class="st5" width="18" height="18"/>
				<rect x="545" y="777" class="st5" width="18" height="18"/>
			</g>
		</g>
		<g>
			<rect x="397" y="938" class="st5" width="18" height="18"/>
			<rect x="378" y="919" class="st5" width="18" height="18"/>
			<rect x="415" y="919" class="st5" width="18" height="18"/>
		</g>
		<g>
			<g>
				<rect x="179" y="1011" class="st5" width="18" height="18"/>
				<rect x="160" y="992" class="st5" width="18" height="18"/>
				<rect x="197" y="992" class="st5" width="18" height="18"/>
			</g>
			<g>
				<rect x="104" y="1011" class="st5" width="18" height="18"/>
				<rect x="85" y="992" class="st5" width="18" height="18"/>
				<rect x="122" y="992" class="st5" width="18" height="18"/>
			</g>
			<g>
				<rect x="30" y="1011" class="st5" width="18" height="18"/>
				<rect x="11" y="992" class="st5" width="18" height="18"/>
				<rect x="48" y="992" class="st5" width="18" height="18"/>
			</g>
			<g>
				<rect x="328" y="1010" class="st5" width="18" height="18"/>
				<rect x="309" y="991" class="st5" width="18" height="18"/>
				<rect x="346" y="991" class="st5" width="18" height="18"/>
			</g>
			<g>
				<rect x="253" y="1010" class="st5" width="18" height="18"/>
				<rect x="234" y="991" class="st5" width="18" height="18"/>
				<rect x="271" y="991" class="st5" width="18" height="18"/>
			</g>
		</g>
		<g>
			<g>
				<rect x="179" y="944" class="st5" width="18" height="18"/>
				<rect x="160" y="925" class="st5" width="18" height="18"/>
				<rect x="197" y="925" class="st5" width="18" height="18"/>
			</g>
			<g>
				<rect x="104" y="944" class="st5" width="18" height="18"/>
				<rect x="85" y="925" class="st5" width="18" height="18"/>
				<rect x="122" y="925" class="st5" width="18" height="18"/>
			</g>
			<g>
				<rect x="253" y="943" class="st5" width="18" height="18"/>
				<rect x="234" y="924" class="st5" width="18" height="18"/>
				<rect x="271" y="924" class="st5" width="18" height="18"/>
			</g>
		</g>
		<g>
			<g>
				<rect x="472" y="864" class="st5" width="18" height="18"/>
				<rect x="453" y="845" class="st5" width="18" height="18"/>
				<rect x="490" y="845" class="st5" width="18" height="18"/>
			</g>
			<g>
				<rect x="395" y="864" class="st5" width="18" height="18"/>
				<rect x="376" y="845" class="st5" width="18" height="18"/>
				<rect x="413" y="845" class="st5" width="18" height="18"/>
			</g>
		</g>
	</g>
	<g id="bg_waves" class="st0">
		<g>
			<g>
				<rect x="309" y="596" class="st5" width="18" height="18"/>
				<rect x="290" y="577" class="st5" width="18" height="18"/>
				<rect x="327" y="577" class="st5" width="18" height="18"/>
			</g>
			<g>
				<rect x="234" y="596" class="st5" width="18" height="18"/>
				<rect x="215" y="577" class="st5" width="18" height="18"/>
				<rect x="252" y="577" class="st5" width="18" height="18"/>
			</g>
			<g>
				<rect x="160" y="596" class="st5" width="18" height="18"/>
				<rect x="141" y="577" class="st5" width="18" height="18"/>
				<rect x="178" y="577" class="st5" width="18" height="18"/>
			</g>
		</g>
		<g>
			<g>
				<rect x="458" y="669" class="st5" width="18" height="18"/>
				<rect x="439" y="650" class="st5" width="18" height="18"/>
				<rect x="476" y="650" class="st5" width="18" height="18"/>
			</g>
			<g>
				<rect x="383" y="669" class="st5" width="18" height="18"/>
				<rect x="364" y="650" class="st5" width="18" height="18"/>
				<rect x="401" y="650" class="st5" width="18" height="18"/>
			</g>
		</g>
		<g>
			<rect x="830" y="578" class="st5" width="18" height="18"/>
			<rect x="811" y="559" class="st5" width="18" height="18"/>
			<rect x="848" y="559" class="st5" width="18" height="18"/>
		</g>
		<g>
			<rect x="886" y="505" class="st5" width="18" height="18"/>
			<rect x="867" y="486" class="st5" width="18" height="18"/>
			<rect x="904" y="486" class="st5" width="18" height="18"/>
		</g>
		<g>
			<g>
				<rect x="535" y="524" class="st5" width="18" height="18"/>
				<rect x="516" y="505" class="st5" width="18" height="18"/>
				<rect x="553" y="505" class="st5" width="18" height="18"/>
			</g>
			<g>
				<rect x="460" y="524" class="st5" width="18" height="18"/>
				<rect x="441" y="505" class="st5" width="18" height="18"/>
				<rect x="478" y="505" class="st5" width="18" height="18"/>
			</g>
			<g>
				<rect x="386" y="524" class="st5" width="18" height="18"/>
				<rect x="367" y="505" class="st5" width="18" height="18"/>
				<rect x="404" y="505" class="st5" width="18" height="18"/>
			</g>
		</g>
	</g>
	<rect id="Street" x="940" y="432" class="st9" width="658" height="56"/>
	<g id="urban_skyline" class="st0">
		<g>
			<rect x="1096" y="126" class="st10" width="91" height="306"/>
			<rect x="1185" y="233" class="st11" width="91" height="199"/>
			<rect x="898" y="323" class="st10" width="55" height="109"/>
			<g>
				<rect x="1116" y="180.4" class="st12" width="18" height="18"/>
				<rect x="1150" y="180.4" class="st12" width="18" height="18"/>
				<rect x="1116" y="145" class="st12" width="18" height="18"/>
				<rect x="1150" y="145" class="st12" width="18" height="18"/>
				<rect x="1116" y="215.8" class="st12" width="18" height="18"/>
				<rect x="1150" y="215.8" class="st13" width="18" height="18"/>
				<rect x="1116" y="251.2" class="st12" width="18" height="18"/>
				<rect x="1150" y="251.2" class="st12" width="18" height="18"/>
				<rect x="1116" y="286.6" class="st14" width="18" height="18"/>
				<rect x="1150" y="286.6" class="st12" width="18" height="18"/>
				<rect x="1116" y="322" class="st12" width="18" height="18"/>
				<rect x="1150" y="322" class="st12" width="18" height="18"/>
			</g>
			<g>
				
					<rect x="1238" y="254.5" transform="matrix(-1 -4.491886e-11 4.491886e-11 -1 2494 527.0919)" class="st12" width="18" height="18"/>
				
					<rect x="1204" y="254.5" transform="matrix(-1 -4.486823e-11 4.486823e-11 -1 2426 527.0919)" class="st13" width="18" height="18"/>
				
					<rect x="1238" y="289.9" transform="matrix(-1 -4.486823e-11 4.486823e-11 -1 2494 597.8919)" class="st12" width="18" height="18"/>
				
					<rect x="1204" y="289.9" transform="matrix(-1 -4.496948e-11 4.496948e-11 -1 2426 597.8919)" class="st12" width="18" height="18"/>
				
					<rect x="1238" y="325.3" transform="matrix(-1 -4.486823e-11 4.486823e-11 -1 2494 668.692)" class="st14" width="18" height="18"/>
				
					<rect x="1204" y="325.3" transform="matrix(-1 -4.496948e-11 4.496948e-11 -1 2426 668.692)" class="st12" width="18" height="18"/>
				
					<rect x="1238" y="360.7" transform="matrix(-1 -4.486823e-11 4.486823e-11 -1 2494 739.4919)" class="st12" width="18" height="18"/>
				
					<rect x="1204" y="360.7" transform="matrix(-1 -4.496948e-11 4.496948e-11 -1 2426 739.4919)" class="st12" width="18" height="18"/>
			</g>
			<g>
				<rect x="1043" y="323" class="st11" width="55" height="109"/>
				<rect x="971" y="323" class="st10" width="55" height="109"/>
				<g>
					
						<rect x="1064" y="342.9" transform="matrix(-1 -4.486823e-11 4.486823e-11 -1 2146 703.8919)" class="st14" width="18" height="18"/>
					
						<rect x="1064" y="378.3" transform="matrix(-1 -4.486823e-11 4.486823e-11 -1 2146 774.692)" class="st12" width="18" height="18"/>
				</g>
				<g>
					<rect x="991" y="342.9" class="st12" width="18" height="18"/>
				</g>
			</g>
			<g>
				<rect x="1082" y="378" class="st11" width="55" height="109"/>
				<rect x="1010" y="378" class="st10" width="55" height="109"/>
				<g>
					
						<rect x="1103" y="397.9" transform="matrix(-1 -4.486823e-11 4.486823e-11 -1 2224 813.8919)" class="st14" width="18" height="18"/>
					
						<rect x="1103" y="433.3" transform="matrix(-1 -4.486823e-11 4.486823e-11 -1 2224 884.692)" class="st12" width="18" height="18"/>
				</g>
				<g>
					<rect x="1030" y="397.9" class="st12" width="18" height="18"/>
				</g>
			</g>
			<g>
				<rect x="919" y="378.3" class="st14" width="18" height="18"/>
				<rect x="919" y="342.9" class="st12" width="18" height="18"/>
			</g>
		</g>
		<g id="house">
			<rect x="1313" y="376" class="st15" width="55" height="56"/>
			<g>
				<rect x="1331" y="357" class="st10" width="18" height="18"/>
				<rect x="1312" y="376" class="st10" width="18" height="18"/>
				<rect x="1349" y="376" class="st10" width="18" height="18"/>
			</g>
			<rect x="1331" y="395" transform="matrix(-1 -4.486823e-11 4.486823e-11 -1 2680 808)" class="st16" width="18" height="18"/>
		</g>
	</g>
	<g id="cars" class="st0">
		<polygon id="bush_3_" class="st17" points="992,467 992,449 974,449 974,467 958,467 958,487 1010,487 1010,467 		"/>
		<polygon id="bush_4_" points="1171,467 1171,449 1153,449 1153,467 1137,467 1137,487 1189,487 1189,467 		"/>
		<polygon id="bush_5_" class="st5" points="1331,467 1331,449 1313,449 1313,467 1297,467 1297,487 1349,487 1349,467 		"/>
	</g>
	<polygon id="bush_1_" class="st18" points="1437,413 1437,395 1419,395 1419,413 1403,413 1403,433 1455,433 1455,413 	"/>
	<polygon id="bush_2_" class="st18" points="1528,413 1528,395 1510,395 1510,413 1494,413 1494,433 1546,433 1546,413 	"/>
	<g id="trees" class="st0">
		<g id="tree">
			<polygon class="st19" points="880,393 880,375 862,375 862,393 846,393 846,413 898,413 898,393 			"/>
			<rect x="863" y="413" class="st8" width="18" height="20"/>
		</g>
		<g id="tree_1_">
			<polygon class="st19" points="1294,393 1294,375 1276,375 1276,393 1260,393 1260,413 1312,413 1312,393 			"/>
			<rect x="1276" y="413" class="st8" width="18" height="19"/>
		</g>
		<g id="tree_2_">
			<rect x="1456" y="391" class="st8" width="18" height="41"/>
			<polygon class="st19" points="1473,372 1473,354 1455,354 1455,372 1439,372 1439,392 1491,392 1491,372 			"/>
		</g>
		<g id="tree_3_">
			<rect x="1369" y="447" class="st8" width="18" height="41"/>
			<polygon class="st19" points="1386,428 1386,410 1368,410 1368,428 1352,428 1352,448 1404,448 1404,428 			"/>
		</g>
	</g>
	<g id="street_lines" class="st0">
		<rect x="1515" y="451" class="st20" width="36" height="18"/>
		<rect x="1461" y="451" class="st20" width="36" height="18"/>
		<rect x="1406" y="451" class="st20" width="36" height="18"/>
		<rect x="1216" y="451" class="st20" width="36" height="18"/>
	</g>
	<polygon id="bush_6_" class="st18" points="1586,468 1586,450 1568,450 1568,468 1552,468 1552,488 1604,488 1604,468 	"/>
	<g id="smol_clouds" class="st0">
		<polygon class="st5" points="1564,270 1564,251 1510,251 1510,270 1494,270 1494,305 1581,305 1581,270 		"/>
		<polygon class="st5" points="272,180 272,161 218,161 218,180 202,180 202,215 289,215 289,180 		"/>
		<polygon class="st5" points="578,251 578,232 524,232 524,251 508,251 508,286 595,286 595,251 		"/>
		<polygon class="st5" points="1204,180 1204,161 1258,161 1258,180 1274,180 1274,215 1187,215 1187,180 		"/>
		<polygon class="st5" points="1096,165 1096,146 1042,146 1042,165 1026,165 1026,200 1113,200 1113,165 		"/>
	</g>
	<g id="bushes_foreground" class="st0">
		<polygon class="st19" points="1053,740 1053,704 943,704 943,740 908,740 908,793 1089,793 1089,740 		"/>
		<polygon class="st19" points="1550,740 1550,704 1440,704 1440,740 1405,740 1405,793 1586,793 1586,740 		"/>
		<polygon class="st19" points="1518,1483.5 1518,1410.5 1295,1410.5 1295,1483.5 1224,1483.5 1224,1591 1591,1591 1591,1483.5 		
			"/>
		<polygon class="st21" points="943,972 943,936 833,936 833,972 798,972 798,1025 979,1025 979,972 		"/>
		<polygon class="st21" points="722,1549 722,1513 612,1513 612,1549 577,1549 577,1602 758,1602 758,1549 		"/>
	</g>
	<g id="flowers" class="st0">
		<g>
			<g>
				<rect x="1248" y="1101" class="st19" width="18" height="18"/>
				<rect x="1229" y="1082" class="st19" width="18" height="18"/>
				<rect x="1266" y="1082" class="st19" width="18" height="18"/>
			</g>
			<rect x="1248" y="1061" transform="matrix(-1 -1.224647e-16 1.224647e-16 -1 2514 2140)" class="st22" width="18" height="18"/>
			<g>
				<rect x="1154" y="757" class="st19" width="18" height="18"/>
				<rect x="1135" y="738" class="st19" width="18" height="18"/>
				<rect x="1172" y="738" class="st19" width="18" height="18"/>
			</g>
			<rect x="1154" y="717" transform="matrix(-1 -1.224647e-16 1.224647e-16 -1 2326 1452)" class="st22" width="18" height="18"/>
			<rect x="1084" y="577" transform="matrix(-1 -1.224647e-16 1.224647e-16 -1 2186 1172)" class="st22" width="18" height="18"/>
			<rect x="1300" y="631" transform="matrix(-1 -1.224647e-16 1.224647e-16 -1 2618 1280)" class="st22" width="18" height="18"/>
			<rect x="1480" y="542" transform="matrix(-1 -1.224647e-16 1.224647e-16 -1 2978 1102)" class="st22" width="18" height="18"/>
		</g>
		<g>
			<g>
				<rect x="1354" y="1101" class="st19" width="18" height="18"/>
				<rect x="1335" y="1082" class="st19" width="18" height="18"/>
				<rect x="1372" y="1082" class="st19" width="18" height="18"/>
			</g>
			<rect x="1354" y="1061" transform="matrix(-1 -1.224647e-16 1.224647e-16 -1 2726 2140)" class="st22" width="18" height="18"/>
		</g>
		<g>
			<g>
				<rect x="1046" y="1318" class="st19" width="18" height="18"/>
				<rect x="1027" y="1299" class="st19" width="18" height="18"/>
				<rect x="1064" y="1299" class="st19" width="18" height="18"/>
			</g>
			<rect x="1046" y="1279" transform="matrix(-1 -1.224647e-16 1.224647e-16 -1 2110 2576)" class="st22" width="18" height="18"/>
		</g>
		<g>
			<g>
				<rect x="1354" y="1316" class="st23" width="18" height="18"/>
				<rect x="1335" y="1297" class="st23" width="18" height="18"/>
				<rect x="1372" y="1297" class="st23" width="18" height="18"/>
			</g>
			<rect x="1354" y="1279" transform="matrix(-1 -1.224647e-16 1.224647e-16 -1 2726 2576)" class="st5" width="18" height="18"/>
		</g>
		<g>
			<g>
				<rect x="1429" y="1316" class="st23" width="18" height="18"/>
				<rect x="1410" y="1297" class="st23" width="18" height="18"/>
				<rect x="1447" y="1297" class="st23" width="18" height="18"/>
			</g>
			<rect x="1429" y="1279" transform="matrix(-1 -1.224647e-16 1.224647e-16 -1 2876 2576)" class="st5" width="18" height="18"/>
			<rect x="1120" y="615" transform="matrix(-1 -1.224647e-16 1.224647e-16 -1 2258 1248)" class="st5" width="18" height="18"/>
			<rect x="904" y="666" transform="matrix(-1 -1.224647e-16 1.224647e-16 -1 1826 1350)" class="st5" width="18" height="18"/>
		</g>
		<g>
			<g>
				<rect x="993" y="1030" class="st19" width="18" height="18"/>
				<rect x="974" y="1011" class="st19" width="18" height="18"/>
				<rect x="1011" y="1011" class="st19" width="18" height="18"/>
			</g>
			<rect x="992" y="990" transform="matrix(-1 -1.224647e-16 1.224647e-16 -1 2002 1998)" class="st22" width="18" height="18"/>
		</g>
		<g>
			<g>
				<rect x="1066" y="1031.6" class="st19" width="18" height="16.4"/>
				<rect x="1047" y="1014.2" class="st19" width="18" height="16.4"/>
				<rect x="1084" y="1014.2" class="st19" width="18" height="16.4"/>
			</g>
			
				<rect x="1065" y="995" transform="matrix(-1 -1.224647e-16 1.224647e-16 -1 2148 2006.4482)" class="st24" width="18" height="16.4"/>
		</g>
	</g>
	<g class="st0">
		<rect x="69" y="432" class="st25" width="72" height="19"/>
		<polygon class="st5" points="122,378 122,395 104,395 104,413 86,413 86,432 141,432 141,414 141,413 141,397 141,395 141,378 		
			"/>
	</g>
	<g class="st0">
		<rect x="237" y="432" class="st17" width="72" height="19"/>
		<polygon class="st5" points="290,378 290,395 272,395 272,413 254,413 254,432 309,432 309,414 309,413 309,397 309,395 309,378 
					"/>
	</g>
	<g id="birds" class="st0">
		<g>
			<rect x="386" y="76" class="st11" width="18" height="18"/>
			<rect x="367" y="57" class="st11" width="18" height="18"/>
			<rect x="404" y="57" class="st11" width="18" height="18"/>
		</g>
		<g>
			<rect x="292" y="218" class="st11" width="18" height="18"/>
			<rect x="273" y="199" class="st11" width="18" height="18"/>
			<rect x="310" y="199" class="st11" width="18" height="18"/>
		</g>
	</g>
</g>
</svg>
